<svg height="457pt" viewBox="-48 0 457 457.14286" width="457pt" xmlns="http://www.w3.org/2000/svg"><path d="m330.3125 0h-299.339844c-17.035156 0-30.9023435 13.867188-30.9023435 30.902344v395.339844c0 17.035156 13.8671875 30.902343 30.9023435 30.902343h299.339844c17.035156 0 30.902344-13.867187 30.902344-30.902343v-395.339844c0-17.035156-13.867188-30.902344-30.902344-30.902344zm12.617188 426.242188c0 7.070312-5.546876 12.613281-12.617188 12.613281h-299.339844c-7.070312 0-12.617187-5.542969-12.617187-12.613281v-395.339844c0-7.070313 5.546875-12.617188 12.617187-12.617188h299.339844c7.070312 0 12.617188 5.546875 12.617188 12.617188zm0 0"/><path d="m302.0625 173.4375h-54.855469c-5.054687 0-9.144531 4.089844-9.144531 9.144531v54.855469c0 5.054688 4.089844 9.144531 9.144531 9.144531h54.855469c5.054688 0 9.144531-4.089843 9.144531-9.144531v-54.855469c0-5.054687-4.089843-9.144531-9.144531-9.144531zm-9.144531 54.855469h-36.570313v-36.570313h36.570313zm0 0"/><path d="m302.0625 260.292969h-54.855469c-5.054687 0-9.144531 4.089843-9.144531 9.144531v54.855469c0 5.054687 4.089844 9.144531 9.144531 9.144531h54.855469c5.054688 0 9.144531-4.089844 9.144531-9.144531v-54.855469c0-5.054688-4.089843-9.144531-9.144531-9.144531zm-9.144531 54.859375h-36.570313v-36.570313h36.570313zm0 0"/><path d="m114.082031 173.4375h-54.859375c-5.054687 0-9.140625 4.089844-9.140625 9.144531v54.855469c0 5.054688 4.085938 9.144531 9.140625 9.144531h54.859375c5.050781 0 9.140625-4.089843 9.140625-9.144531v-54.855469c0-5.054687-4.089844-9.144531-9.140625-9.144531zm-9.144531 54.855469h-36.570312v-36.570313h36.570312zm0 0"/><path d="m302.0625 347.152344h-54.855469c-5.054687 0-9.144531 4.089844-9.144531 9.140625v54.859375c0 5.054687 4.089844 9.140625 9.144531 9.140625h54.855469c5.054688 0 9.144531-4.085938 9.144531-9.140625v-54.859375c0-5.050781-4.089843-9.140625-9.144531-9.140625zm-9.144531 54.855468h-36.570313v-36.570312h36.570313zm0 0"/><path d="m208.070312 173.4375h-54.855468c-5.054688 0-9.144532 4.089844-9.144532 9.144531v54.855469c0 5.054688 4.089844 9.144531 9.144532 9.144531h54.855468c5.054688 0 9.144532-4.089843 9.144532-9.144531v-54.855469c0-5.054687-4.089844-9.144531-9.144532-9.144531zm-9.140624 54.855469h-36.574219v-36.570313h36.574219zm0 0"/><path d="m114.082031 260.292969h-54.859375c-5.054687 0-9.140625 4.089843-9.140625 9.144531v54.855469c0 5.054687 4.085938 9.144531 9.140625 9.144531h54.859375c5.050781 0 9.140625-4.089844 9.140625-9.144531v-54.855469c0-5.054688-4.089844-9.144531-9.140625-9.144531zm-9.144531 54.859375h-36.570312v-36.570313h36.570312zm0 0"/><path d="m208.070312 347.152344h-54.855468c-5.054688 0-9.144532 4.089844-9.144532 9.140625v54.859375c0 5.054687 4.089844 9.140625 9.144532 9.140625h54.855468c5.054688 0 9.144532-4.085938 9.144532-9.140625v-54.859375c0-5.050781-4.089844-9.140625-9.144532-9.140625zm-9.140624 54.855468h-36.574219v-36.570312h36.574219zm0 0"/><path d="m208.070312 260.292969h-54.855468c-5.054688 0-9.144532 4.089843-9.144532 9.144531v54.855469c0 5.054687 4.089844 9.144531 9.144532 9.144531h54.855468c5.054688 0 9.144532-4.089844 9.144532-9.144531v-54.855469c0-5.054688-4.089844-9.144531-9.144532-9.144531zm-9.140624 54.859375h-36.574219v-36.570313h36.574219zm0 0"/><path d="m114.082031 347.152344h-54.859375c-5.054687 0-9.140625 4.089844-9.140625 9.140625v54.859375c0 5.054687 4.085938 9.140625 9.140625 9.140625h54.859375c5.050781 0 9.140625-4.085938 9.140625-9.140625v-54.859375c0-5.050781-4.089844-9.140625-9.140625-9.140625zm-9.144531 54.855468h-36.570312v-36.570312h36.570312zm0 0"/><path d="m312.480469 36.847656h-263.675781c-5.054688 0-9.144532 4.089844-9.144532 9.144532v97.097656c0 5.054687 4.089844 9.140625 9.144532 9.140625h263.675781c5.054687 0 9.144531-4.085938 9.144531-9.140625v-97.097656c0-5.054688-4.089844-9.144532-9.144531-9.144532zm-9.140625 97.097656h-245.394532v-78.8125h245.394532zm0 0"/></svg>