<?xml version="1.0" encoding="iso-8859-1"?>
<!-- Generator: Adobe Illustrator 19.0.0, SVG Export Plug-In . SVG Version: 6.00 Build 0)  -->
<svg version="1.1" id="Layer_1" xmlns="http://www.w3.org/2000/svg" xmlns:xlink="http://www.w3.org/1999/xlink" x="0px" y="0px"
	 viewBox="0 0 512 512" style="enable-background:new 0 0 512 512;" xml:space="preserve">
<g>
	<g>
		<path d="M413.683,123.506c5.632,0,10.199-4.566,10.199-10.199V54.259c0-5.633-4.567-10.199-10.199-10.199H10.199
			C4.566,44.059,0,48.626,0,54.259v403.483c0,5.633,4.566,10.199,10.199,10.199h403.484c5.632,0,10.199-4.566,10.198-10.198v-59.048
			c0-5.633-4.567-10.199-10.199-10.199H81.631V123.506H413.683z M71.432,408.892h332.051v38.65H20.398V64.458h383.084v38.649H71.432
			c-5.633,0-10.199,4.566-10.199,10.199v285.387C61.233,404.326,65.799,408.892,71.432,408.892z"/>
	</g>
</g>
<g>
	<g>
		<path d="M509.013,248.787l-91.585-91.584c-2.917-2.917-7.305-3.789-11.115-2.211c-3.81,1.579-6.296,5.298-6.296,9.423v44.924
			H169.843c-5.633,0-10.199,4.566-10.199,10.199v72.922c0,5.633,4.566,10.199,10.199,10.199h230.174v44.924
			c0,4.126,2.486,7.844,6.296,9.423c1.262,0.523,2.588,0.777,3.901,0.777c2.655,0,5.263-1.037,7.214-2.989l91.585-91.584
			C512.995,259.228,512.995,252.77,509.013,248.787z M420.415,322.962v-30.501c0-5.633-4.567-10.199-10.199-10.199H180.042v-52.524
			h230.174c5.632,0,10.199-4.566,10.199-10.199v-30.501L487.376,256L420.415,322.962z"/>
	</g>
</g>
<g>
	<g>
		<path d="M269.259,252.94h-68.335c-5.633,0-10.199,4.566-10.199,10.199c0,5.633,4.566,10.199,10.199,10.199h68.335
			c5.632,0,10.199-4.566,10.199-10.199C279.458,257.506,274.891,252.94,269.259,252.94z"/>
	</g>
</g>
<g>
	<g>
		<path d="M308.016,252.94h-5.1c-5.632,0-10.199,4.566-10.199,10.199c0,5.633,4.567,10.199,10.199,10.199h5.1
			c5.632,0,10.199-4.566,10.199-10.199C318.215,257.506,313.648,252.94,308.016,252.94z"/>
	</g>
</g>
<g>
</g>
<g>
</g>
<g>
</g>
<g>
</g>
<g>
</g>
<g>
</g>
<g>
</g>
<g>
</g>
<g>
</g>
<g>
</g>
<g>
</g>
<g>
</g>
<g>
</g>
<g>
</g>
<g>
</g>
</svg>
