<?xml version="1.0" encoding="iso-8859-1"?>
<!-- Generator: Adobe Illustrator 19.0.0, SVG Export Plug-In . SVG Version: 6.00 Build 0)  -->
<svg version="1.1" id="Capa_1" xmlns="http://www.w3.org/2000/svg" xmlns:xlink="http://www.w3.org/1999/xlink" x="0px" y="0px"
	 viewBox="0 0 480 480" style="enable-background:new 0 0 480 480;" xml:space="preserve">
<g>
	<g>
		<path d="M472,0H8C3.576,0,0,3.584,0,8v432c0,4.416,3.576,8,8,8h32v24c0,4.416,3.576,8,8,8h80c4.424,0,8-3.584,8-8v-24h192v24
			c0,4.416,3.576,8,8,8h80c4.424,0,8-3.584,8-8v-24h48c4.424,0,8-3.584,8-8V8C480,3.584,476.424,0,472,0z M120,464H56v-16h64V464z
			 M408,464h-64v-16h64V464z M464,432h-48h-80H128H48H16V16h448V432z"/>
	</g>
</g>
<g>
	<g>
		<path d="M416,208v-32h16c4.424,0,8-3.584,8-8V88c0-4.416-3.576-8-8-8h-16V40c0-4.416-3.576-8-8-8H40c-4.424,0-8,3.584-8,8v368
			c0,4.416,3.576,8,8,8h368c4.424,0,8-3.584,8-8v-40h16c4.424,0,8-3.584,8-8v-80c0-4.416-3.576-8-8-8h-16v-32V208z M400,400H48V48
			h352v32h-32c-4.424,0-8,3.584-8,8v80c0,4.416,3.576,8,8,8h32v24h-24c-4.424,0-8,3.584-8,8v32c0,4.416,3.576,8,8,8h24v24h-32
			c-4.424,0-8,3.584-8,8v80c0,4.416,3.576,8,8,8h32V400z M400,216v16h-16v-16H400z M424,288v24h-24v16h24v24h-16h-32v-64h32H424z
			 M408,160h-32V96h32h16v24h-24v16h24v24H408z"/>
	</g>
</g>
<g>
	<g>
		<path d="M248,104H80c-4.424,0-8,3.584-8,8v224c0,4.416,3.576,8,8,8h168c4.424,0,8-3.584,8-8V112C256,107.584,252.424,104,248,104z
			 M240,328H88V184h152V328z M240,168H88v-48h152V168z"/>
	</g>
</g>
<g>
	<g>
		<rect x="112" y="208" width="24" height="16"/>
	</g>
</g>
<g>
	<g>
		<rect x="152" y="208" width="24" height="16"/>
	</g>
</g>
<g>
	<g>
		<rect x="192" y="208" width="24" height="16"/>
	</g>
</g>
<g>
	<g>
		<rect x="112" y="248" width="24" height="16"/>
	</g>
</g>
<g>
	<g>
		<rect x="152" y="248" width="24" height="16"/>
	</g>
</g>
<g>
	<g>
		<rect x="192" y="248" width="24" height="16"/>
	</g>
</g>
<g>
	<g>
		<rect x="112" y="288" width="24" height="16"/>
	</g>
</g>
<g>
	<g>
		<rect x="152" y="288" width="24" height="16"/>
	</g>
</g>
<g>
	<g>
		<rect x="192" y="288" width="24" height="16"/>
	</g>
</g>
<g>
</g>
<g>
</g>
<g>
</g>
<g>
</g>
<g>
</g>
<g>
</g>
<g>
</g>
<g>
</g>
<g>
</g>
<g>
</g>
<g>
</g>
<g>
</g>
<g>
</g>
<g>
</g>
<g>
</g>
</svg>
