<svg height="512pt" viewBox="0 -79 512 512" width="512pt" xmlns="http://www.w3.org/2000/svg"><g fill-rule="evenodd"><path d="m502 44.042969h-208.226562v-34.042969c0-5.523438-4.476563-10-10-10h-55.546876c-5.523437 0-10 4.476562-10 10v34.042969h-208.226562c-5.523438 0-10 4.476562-10 10v180.4375c0 5.523437 4.476562 10 10 10s10-4.476563 10-10v-170.4375h198.226562v34.042969c0 5.519531 4.476563 10 10 10h55.546876c5.523437 0 10-4.480469 10-10v-34.042969h198.226562v20c0 5.523437 4.476562 10 10 10s10-4.476563 10-10v-30c0-5.523438-4.476562-10-10-10zm-228.226562 44.042969h-35.546876v-68.085938h35.546876zm0 0"/><path d="m502 154.042969c-5.523438 0-10 4.476562-10 10v170.4375h-472v-20.003907c0-5.523437-4.476562-10-10-10s-10 4.476563-10 10v30.003907c0 5.523437 4.476562 10 10 10h492c5.523438 0 10-4.476563 10-10v-180.4375c0-5.523438-4.476562-10-10-10zm0 0"/><path d="m46.558594 283.59375c0 5.523438 4.476562 10 10 10h176.597656.023438c5.519531 0 10-4.476562 10-10 0-.226562-.007813-.449219-.023438-.667969-.273438-42.996093-26.984375-79.683593-64.273438-93.824219 9.214844-8.910156 14.949219-21.398437 14.949219-35.195312 0-27.007812-21.96875-48.976562-48.976562-48.976562-27.003907 0-48.972657 21.96875-48.972657 48.976562 0 13.796875 5.734376 26.285156 14.949219 35.195312-37.480469 14.210938-64.273437 51.207032-64.273437 94.492188zm98.296875-158.664062c15.976562 0 28.976562 12.996093 28.976562 28.972656 0 15.980468-13 28.976562-28.976562 28.976562-15.976563 0-28.976563-12.996094-28.976563-28.976562.003906-15.976563 13-28.972656 28.976563-28.972656zm0 77.949218c39.890625 0 72.914062 30.910156 77.703125 70.714844h-155.40625c4.792968-39.804688 37.8125-70.714844 77.703125-70.714844zm0 0"/><path d="m308.246094 266.199219h141.90625c5.523437 0 10-4.476563 10-10 0-5.523438-4.476563-10-10-10h-141.90625c-5.519532 0-10 4.476562-10 10 0 5.523437 4.480468 10 10 10zm0 0"/><path d="m308.246094 152.324219h141.90625c5.523437 0 10-4.476563 10-10 0-5.523438-4.476563-10-10-10h-141.90625c-5.519532 0-10 4.476562-10 10 0 5.523437 4.480468 10 10 10zm0 0"/><path d="m308.246094 209.261719h141.90625c5.523437 0 10-4.476563 10-10 0-5.523438-4.476563-10-10-10h-141.90625c-5.519532 0-10 4.476562-10 10 0 5.523437 4.480468 10 10 10zm0 0"/><path d="m10 284.480469c5.507812 0 10-4.492188 10-10 0-5.507813-4.492188-10-10-10s-10 4.492187-10 10c0 5.503906 4.492188 10 10 10zm0 0"/><path d="m502 114.042969c-5.507812 0-10 4.492187-10 10 0 5.507812 4.492188 10 10 10s10-4.492188 10-10c0-5.507813-4.492188-10-10-10zm0 0"/></g></svg>