<svg xmlns="http://www.w3.org/2000/svg" width="29.25" height="29.219" viewBox="0 0 29.25 29.219">
  <defs>
    <style>
      .cls-1 {
        fill: #73b6cc;
        fill-rule: evenodd;
      }
    </style>
  </defs>
  <path id="Shape_4_copy_2" data-name="Shape 4 copy 2" class="cls-1" d="M14.849,0.364A14.615,14.615,0,1,1,.234,14.979,14.615,14.615,0,0,1,14.849.364ZM3.918,14.945l4.285,1.6,1.659,5.335a0.5,0.5,0,0,0,.8.241l2.389-1.947a0.712,0.712,0,0,1,.869-0.024l4.309,3.128a0.5,0.5,0,0,0,.792-0.305L22.177,7.789A0.505,0.505,0,0,0,21.5,7.215L3.913,14A0.506,0.506,0,0,0,3.918,14.945Zm5.677,0.748,8.376-5.159a0.146,0.146,0,0,1,.176.231l-6.912,6.425a1.435,1.435,0,0,0-.444.858l-0.235,1.745a0.216,0.216,0,0,1-.423.031L9.226,16.642A0.844,0.844,0,0,1,9.595,15.693Z" transform="translate(-0.219 -0.375)"/>
</svg>
