<svg xmlns="http://www.w3.org/2000/svg" width="29.25" height="29.219" viewBox="0 0 29.25 29.219">
  <defs>
    <style>
      .cls-1 {
        fill: #a5345c;
        fill-rule: evenodd;
      }
    </style>
  </defs>
  <path id="Shape_4_copy" data-name="Shape 4 copy" class="cls-1" d="M14.849,0.364A14.615,14.615,0,1,1,.234,14.979,14.615,14.615,0,0,1,14.849.364ZM7.341,14.377a8.584,8.584,0,0,1,7.264-7.04L14.417,6a9.946,9.946,0,0,0-8.41,8.154ZM11.2,11.163a5.963,5.963,0,0,0-1.667,3.218l1.334,0.227a4.628,4.628,0,0,1,3.919-3.8L14.594,9.467A5.927,5.927,0,0,0,11.2,11.163Zm6.516,4.31A13.351,13.351,0,0,1,14.493,18.4c-0.268.166-.564,0.289-0.842,0.441a0.253,0.253,0,0,1-.354-0.065c-0.423-.434-0.853-0.861-1.283-1.287a1.218,1.218,0,0,0-1.841,0Q9.136,18.521,8.1,19.555a1.23,1.23,0,0,0,.007,1.873c0.39,0.394.806,0.77,1.175,1.183a2.315,2.315,0,0,0,1.985.756,8.245,8.245,0,0,0,3.157-.919,17.207,17.207,0,0,0,5.7-4.459,15.662,15.662,0,0,0,2.781-4.631,5.993,5.993,0,0,0,.463-2.578,2.094,2.094,0,0,0-.658-1.414c-0.441-.42-0.857-0.857-1.291-1.284a1.226,1.226,0,0,0-1.84,0c-0.351.343-.694,0.694-1.041,1.041s-0.673.673-1.009,1.013a1.222,1.222,0,0,0,0,1.884c0.423,0.426.842,0.853,1.273,1.269a0.265,0.265,0,0,1,.065.34A7.616,7.616,0,0,1,17.711,15.473Z" transform="translate(-0.219 -0.375)"/>
</svg>
